# xmcd
#
# Track frame offsets:
#	188
#	14458
#	28188
#	41645
#	55545
#	75008
#	89190
#	102713
#	119515
#	131403
#	152233
#	167483
#
# Disc length: 2443 seconds
#
# Revision: 1
# Processed by: cddbd v1.5.1PL2 Copyright (c) Steve Scherf et al.
# Submitted via: audiograbber 1.83.01
#
DISCID=9609890c
DTITLE=Marie Rottrova - Chvili muj a chvili svuj
DYEAR=1900
DGENRE=Chanson
TTITLE0=To ma cas
TTITLE1=Co je s tajemstvim
TTITLE2=Zivot se s chlapem pronese
TTITLE3=Song pro malou osklivku
TTITLE4=Muzi jsou stejni /Watch Closely Now/ 
TTITLE5=Patnact
TTITLE6=Rano jak ma byt
TTITLE7=Uz patou noc mi schazis
TTITLE8=Kdyz kraci, jde schylen
TTITLE9=Usvit
TTITLE10=Jizni kriz
TTITLE11=Chvili muj a chvili svuj
EXTD=
EXTT0=
EXTT1=
EXTT2=
EXTT3=
EXTT4=
EXTT5=
EXTT6=
EXTT7=
EXTT8=
EXTT9=
EXTT10=
EXTT11=
PLAYORDER=
